<svg width="3172" height="3286" xmlns="http://www.w3.org/2000/svg" xmlns:xlink="http://www.w3.org/1999/xlink" xml:space="preserve" overflow="hidden"><g transform="translate(-531 -114)"><g><path d="M1972 2562.45C1972 2536.8 1992.8 2516 2018.45 2516L3156.55 2516C3182.2 2516 3203 2536.8 3203 2562.45L3203 2789.55C3203 2815.2 3182.2 2836 3156.55 2836L2018.45 2836C1992.8 2836 1972 2815.2 1972 2789.55Z" fill="#F2CFEE" fill-rule="evenodd" fill-opacity="0.662745"/><path d="M1884 1001.53C1884 974.173 1906.17 952 1933.53 952L3137.47 952C3164.83 952 3187 974.173 3187 1001.53L3187 1228.47C3187 1255.83 3164.83 1278 3137.47 1278L1933.53 1278C1906.17 1278 1884 1255.83 1884 1228.47Z" fill="#D9F2D0" fill-rule="evenodd" fill-opacity="1"/><path d="M1309 1355.73C1309 1331.58 1328.58 1312 1352.73 1312L3657.28 1312C3681.42 1312 3701 1331.58 3701 1355.73L3701 2434.27C3701 2458.42 3681.42 2478 3657.28 2478L1352.73 2478C1328.58 2478 1309 2458.42 1309 2434.27Z" fill="#DCEAF7" fill-rule="evenodd" fill-opacity="1"/><path d="M1769.5 311.5 1795.51 120.5 2319.5 120.5 2293.49 311.5Z" stroke="#042433" stroke-width="4.58333" stroke-linecap="butt" stroke-linejoin="miter" stroke-miterlimit="8" stroke-opacity="1" fill="#F2F2F2" fill-rule="evenodd" fill-opacity="1"/><text fill="#000000" fill-opacity="1" font-family="Arial,Arial_MSFontService,sans-serif" font-style="normal" font-variant="normal" font-weight="700" font-stretch="normal" font-size="44" text-anchor="start" direction="ltr" writing-mode="lr-tb" unicode-bidi="normal" text-decoration="none" transform="matrix(1 0 0 1 1900.11 205)">PDB File from </text><text fill="#000000" fill-opacity="1" font-family="Arial,Arial_MSFontService,sans-serif" font-style="normal" font-variant="normal" font-weight="700" font-stretch="normal" font-size="44" text-anchor="start" direction="ltr" writing-mode="lr-tb" unicode-bidi="normal" text-decoration="none" transform="matrix(1 0 0 1 1982.03 258)">RCSB</text><path d="M1574.5 499 2044.5 369.5 2514.5 499 2044.5 628.5Z" stroke="#042433" stroke-width="3.4375" stroke-linecap="butt" stroke-linejoin="miter" stroke-miterlimit="8" stroke-opacity="1" fill="#F2F2F2" fill-rule="evenodd" fill-opacity="1"/><text fill="#000000" fill-opacity="1" font-family="Arial,Arial_MSFontService,sans-serif" font-style="normal" font-variant="normal" font-weight="400" font-stretch="normal" font-size="44" text-anchor="start" direction="ltr" writing-mode="lr-tb" unicode-bidi="normal" text-decoration="none" transform="matrix(1 0 0 1 1851.12 488)">Ligand Identification </text><text fill="#000000" fill-opacity="1" font-family="Arial,Arial_MSFontService,sans-serif" font-style="normal" font-variant="normal" font-weight="400" font-stretch="normal" font-size="44" text-anchor="start" direction="ltr" writing-mode="lr-tb" unicode-bidi="normal" text-decoration="none" transform="matrix(1 0 0 1 1851.97 541)">&amp; Structure Splitting</text><path d="M1788.5 853.5 1810.02 695.5 2300.5 695.5 2278.98 853.5Z" stroke="#042433" stroke-width="4.58333" stroke-linecap="butt" stroke-linejoin="miter" stroke-miterlimit="8" stroke-opacity="1" fill="#F2F2F2" fill-rule="evenodd" fill-opacity="1"/><text fill="#000000" fill-opacity="1" font-family="Arial,Arial_MSFontService,sans-serif" font-style="normal" font-variant="normal" font-weight="700" font-stretch="normal" font-size="44" text-anchor="start" direction="ltr" writing-mode="lr-tb" unicode-bidi="normal" text-decoration="none" transform="matrix(1 0 0 1 1969.14 790)">Protein</text><path d="M1975.5 1120 2536 990.5 3096.5 1120 2536 1249.5Z" stroke="#042433" stroke-width="3.4375" stroke-linecap="butt" stroke-linejoin="miter" stroke-miterlimit="8" stroke-opacity="1" fill="#F2F2F2" fill-rule="evenodd" fill-opacity="1"/><text fill="#000000" fill-opacity="1" font-family="Arial,Arial_MSFontService,sans-serif" font-style="normal" font-variant="normal" font-weight="400" font-stretch="normal" font-size="44" text-anchor="start" direction="ltr" writing-mode="lr-tb" unicode-bidi="normal" text-decoration="none" transform="matrix(1 0 0 1 2358.15 1083)">Covalent OR Rare </text><text fill="#000000" fill-opacity="1" font-family="Arial,Arial_MSFontService,sans-serif" font-style="normal" font-variant="normal" font-weight="400" font-stretch="normal" font-size="44" text-anchor="start" direction="ltr" writing-mode="lr-tb" unicode-bidi="normal" text-decoration="none" transform="matrix(1 0 0 1 2355.56 1136)">Element OR Steric </text><text fill="#000000" fill-opacity="1" font-family="Arial,Arial_MSFontService,sans-serif" font-style="normal" font-variant="normal" font-weight="400" font-stretch="normal" font-size="44" text-anchor="start" direction="ltr" writing-mode="lr-tb" unicode-bidi="normal" text-decoration="none" transform="matrix(1 0 0 1 2444.93 1188)">Clashes? </text><path d="M2747.5 850.5 2769.02 692.5 3259.5 692.5 3237.98 850.5Z" stroke="#042433" stroke-width="4.58333" stroke-linecap="butt" stroke-linejoin="miter" stroke-miterlimit="8" stroke-opacity="1" fill="#F2F2F2" fill-rule="evenodd" fill-opacity="1"/><text fill="#000000" fill-opacity="1" font-family="Arial,Arial_MSFontService,sans-serif" font-style="normal" font-variant="normal" font-weight="700" font-stretch="normal" font-size="44" text-anchor="start" direction="ltr" writing-mode="lr-tb" unicode-bidi="normal" text-decoration="none" transform="matrix(1 0 0 1 2932.52 787)">Ligand</text><rect x="538.5" y="1816.5" width="418" height="158" stroke="#042433" stroke-width="4.58333" stroke-linecap="butt" stroke-linejoin="miter" stroke-miterlimit="8" stroke-opacity="1" fill="#FBE3D6" fill-opacity="1"/><text fill="#000000" fill-opacity="1" font-family="Arial,Arial_MSFontService,sans-serif" font-style="normal" font-variant="normal" font-weight="700" font-stretch="normal" font-size="44" text-anchor="start" direction="ltr" writing-mode="lr-tb" unicode-bidi="normal" text-decoration="none" transform="matrix(1 0 0 1 672.18 1911)">Discarded</text><g><g><g><path d="M87.7501 23.8334C87.743 21.4431 85.8071 19.5072 83.4168 19.5L63.9168 19.5 63.9168 16.25C63.9132 13.2599 61.4902 10.8369 58.5001 10.8334L45.5001 10.8334C42.51 10.8369 40.087 13.2599 40.0834 16.25L40.0834 19.5 20.5834 19.5C18.1931 19.5072 16.2572 21.4431 16.25 23.8334L16.25 30.3334 20.6364 30.3334 23.6265 89.1086C23.7729 91.9885 26.1499 94.2486 29.0334 94.2501L74.9668 94.2501C77.8512 94.2498 80.2293 91.9893 80.3759 89.1086L83.3637 30.3334 87.7501 30.3334ZM42.2501 16.25C42.2501 14.455 43.7051 13 45.5001 13L58.5001 13C60.2951 13 61.7501 14.455 61.7501 16.25L61.7501 19.5 42.2501 19.5ZM78.2103 88.9981C78.1226 90.726 76.6968 92.0823 74.9668 92.0835L29.0334 92.0835C27.3008 92.0858 25.8711 90.7284 25.7834 88.9981L22.8064 30.3334 81.1981 30.3334ZM85.5835 28.1667 18.4167 28.1667 18.4167 23.8334C18.4167 22.6367 19.3867 21.6667 20.5834 21.6667L83.4168 21.6667C84.6134 21.6667 85.5835 22.6367 85.5835 23.8334Z" fill="#000000" fill-rule="nonzero" fill-opacity="1" transform="matrix(1.02885 0 0 1 547 1843)"/><path d="M39.0001 84.5001 39.0542 84.5001C39.6518 84.471 40.1126 83.9629 40.0835 83.3652 40.0834 83.3648 40.0834 83.3643 40.0834 83.3637L37.9167 38.947C37.8868 38.3487 37.3776 37.8879 36.7792 37.9178 36.1809 37.9477 35.7202 38.457 35.7501 39.0553L37.9167 83.4721C37.9462 84.0487 38.4226 84.5009 39.0001 84.5001Z" fill="#000000" fill-rule="nonzero" fill-opacity="1" transform="matrix(1.02885 0 0 1 547 1843)"/><path d="M52.0001 84.5001C52.5984 84.5001 53.0834 84.0151 53.0834 83.4168L53.0834 39.0001C53.0834 38.4017 52.5984 37.9167 52.0001 37.9167 51.4018 37.9167 50.9167 38.4017 50.9167 39.0001L50.9167 83.4168C50.9167 84.0151 51.4018 84.5001 52.0001 84.5001Z" fill="#000000" fill-rule="nonzero" fill-opacity="1" transform="matrix(1.02885 0 0 1 547 1843)"/><path d="M64.947 84.5001 65.0001 84.5001C65.5783 84.5008 66.0552 84.0474 66.0834 83.4699L68.2501 39.0531C68.28 38.4548 67.8193 37.9455 67.2209 37.9156 66.6226 37.8857 66.1133 38.3465 66.0834 38.9448L63.9168 83.3615C63.8856 83.959 64.3447 84.4687 64.9421 84.4999 64.9438 84.4999 64.9454 84.5 64.947 84.5001Z" fill="#000000" fill-rule="nonzero" fill-opacity="1" transform="matrix(1.02885 0 0 1 547 1843)"/></g></g></g><rect x="1643.5" y="1410.5" width="664" height="115" stroke="#042433" stroke-width="3.4375" stroke-linecap="butt" stroke-linejoin="miter" stroke-miterlimit="8" stroke-opacity="1" fill="#F2F2F2" fill-opacity="1"/><text fill="#000000" fill-opacity="1" font-family="Arial,Arial_MSFontService,sans-serif" font-style="normal" font-variant="normal" font-weight="400" font-stretch="normal" font-size="44" text-anchor="start" direction="ltr" writing-mode="lr-tb" unicode-bidi="normal" text-decoration="none" transform="matrix(1 0 0 1 1700.07 1483)">Find missing residues/atoms</text><rect x="2855.5" y="1807.5" width="664" height="115" stroke="#042433" stroke-width="3.4375" stroke-linecap="butt" stroke-linejoin="miter" stroke-miterlimit="8" stroke-opacity="1" fill="#F2F2F2" fill-opacity="1"/><text fill="#000000" fill-opacity="1" font-family="Arial,Arial_MSFontService,sans-serif" font-style="normal" font-variant="normal" font-weight="400" font-stretch="normal" font-size="44" text-anchor="start" direction="ltr" writing-mode="lr-tb" unicode-bidi="normal" text-decoration="none" transform="matrix(1 0 0 1 3011.42 1880)">Assign bond order</text><rect x="2855.5" y="2007.5" width="664" height="113" stroke="#042433" stroke-width="3.4375" stroke-linecap="butt" stroke-linejoin="miter" stroke-miterlimit="8" stroke-opacity="1" fill="#F2F2F2" fill-opacity="1"/><text fill="#000000" fill-opacity="1" font-family="Arial,Arial_MSFontService,sans-serif" font-style="normal" font-variant="normal" font-weight="400" font-stretch="normal" font-size="44" text-anchor="start" direction="ltr" writing-mode="lr-tb" unicode-bidi="normal" text-decoration="none" transform="matrix(1 0 0 1 2954.7 2080)">Assign protonation state</text><rect x="1653.5" y="2241.5" width="664" height="115" stroke="#042433" stroke-width="3.4375" stroke-linecap="butt" stroke-linejoin="miter" stroke-miterlimit="8" stroke-opacity="1" fill="#F2F2F2" fill-opacity="1"/><text fill="#000000" fill-opacity="1" font-family="Arial,Arial_MSFontService,sans-serif" font-style="normal" font-variant="normal" font-weight="400" font-stretch="normal" font-size="44" text-anchor="start" direction="ltr" writing-mode="lr-tb" unicode-bidi="normal" text-decoration="none" transform="matrix(1 0 0 1 1838.94 2314)">Add hydrogens</text><rect x="2855.5" y="2201.5" width="664" height="113" stroke="#042433" stroke-width="3.4375" stroke-linecap="butt" stroke-linejoin="miter" stroke-miterlimit="8" stroke-opacity="1" fill="#F2F2F2" fill-opacity="1"/><text fill="#000000" fill-opacity="1" font-family="Arial,Arial_MSFontService,sans-serif" font-style="normal" font-variant="normal" font-weight="400" font-stretch="normal" font-size="44" text-anchor="start" direction="ltr" writing-mode="lr-tb" unicode-bidi="normal" text-decoration="none" transform="matrix(1 0 0 1 3041.49 2273)">Add hydrogens</text><path d="M3.4375-6.41396e-05 3.43816 35.1083-3.43684 35.1084-3.4375 6.41396e-05ZM13.7506 30.5247 0.00108268 58.025-13.7494 30.5253Z" fill="#156082" fill-rule="nonzero" fill-opacity="1" transform="matrix(-1 0 0 1 2044.5 311.5)"/><path d="M3189.86 1922 3189.86 1984.4 3184.14 1984.4 3184.14 1922ZM3200.75 1979.82 3187 2007.32 3173.25 1979.82Z" fill="#000000" fill-rule="nonzero" fill-opacity="1"/><path d="M2.86458-0.000115878 2.8669 57.3771-2.86226 57.3773-2.86458 0.000115878ZM13.7521 52.7933 0.00324803 80.2939-13.7479 52.7944Z" fill="#000000" fill-rule="nonzero" fill-opacity="1" transform="matrix(-1 0 0 1 3187 2120)"/><rect x="2205.5" y="2621.5" width="764" height="153" stroke="#042433" stroke-width="4.58333" stroke-linecap="butt" stroke-linejoin="miter" stroke-miterlimit="8" stroke-opacity="1" fill="#F2F2F2" fill-opacity="1"/><text fill="#000000" fill-opacity="1" font-family="Arial,Arial_MSFontService,sans-serif" font-style="normal" font-variant="normal" font-weight="700" font-stretch="normal" font-size="44" text-anchor="start" direction="ltr" writing-mode="lr-tb" unicode-bidi="normal" text-decoration="none" transform="matrix(1 0 0 1 2291.19 2714)">Constrained FF Optimization</text><path d="M2015 1770.5 2346.5 1632 2678 1770.5 2346.5 1909Z" stroke="#042433" stroke-width="2.29167" stroke-linecap="butt" stroke-linejoin="miter" stroke-miterlimit="8" stroke-opacity="1" fill="#F2F2F2" fill-rule="evenodd" fill-opacity="1"/><text fill="#000000" fill-opacity="1" font-family="Arial,Arial_MSFontService,sans-serif" font-style="normal" font-variant="normal" font-weight="400" font-stretch="normal" font-size="44" text-anchor="start" direction="ltr" writing-mode="lr-tb" unicode-bidi="normal" text-decoration="none" transform="matrix(1 0 0 1 2272.74 1708)">Missing </text><text fill="#000000" fill-opacity="1" font-family="Arial,Arial_MSFontService,sans-serif" font-style="normal" font-variant="normal" font-weight="400" font-stretch="normal" font-size="44" text-anchor="start" direction="ltr" writing-mode="lr-tb" unicode-bidi="normal" text-decoration="none" transform="matrix(1 0 0 1 2221.75 1761)">residues &gt;10 </text><text fill="#000000" fill-opacity="1" font-family="Arial,Arial_MSFontService,sans-serif" font-style="normal" font-variant="normal" font-weight="400" font-stretch="normal" font-size="44" text-anchor="start" direction="ltr" writing-mode="lr-tb" unicode-bidi="normal" text-decoration="none" transform="matrix(1 0 0 1 2259.56 1813)">aa OR at </text><text fill="#000000" fill-opacity="1" font-family="Arial,Arial_MSFontService,sans-serif" font-style="normal" font-variant="normal" font-weight="400" font-stretch="normal" font-size="44" text-anchor="start" direction="ltr" writing-mode="lr-tb" unicode-bidi="normal" text-decoration="none" transform="matrix(1 0 0 1 2258.42 1865)">terminals </text><rect x="1378.5" y="1676.5" width="422" height="233" stroke="#042433" stroke-width="3.4375" stroke-linecap="butt" stroke-linejoin="miter" stroke-miterlimit="8" stroke-opacity="1" fill="#F2F2F2" fill-opacity="1"/><text fill="#000000" fill-opacity="1" font-family="Arial,Arial_MSFontService,sans-serif" font-style="normal" font-variant="normal" font-weight="400" font-stretch="normal" font-size="44" text-anchor="start" direction="ltr" writing-mode="lr-tb" unicode-bidi="normal" text-decoration="none" transform="matrix(1 0 0 1 1470.95 1756)">Add missing </text><text fill="#000000" fill-opacity="1" font-family="Arial,Arial_MSFontService,sans-serif" font-style="normal" font-variant="normal" font-weight="400" font-stretch="normal" font-size="44" text-anchor="start" direction="ltr" writing-mode="lr-tb" unicode-bidi="normal" text-decoration="none" transform="matrix(1 0 0 1 1468.65 1809)">atoms within </text><text fill="#000000" fill-opacity="1" font-family="Arial,Arial_MSFontService,sans-serif" font-style="normal" font-variant="normal" font-weight="400" font-stretch="normal" font-size="44" text-anchor="start" direction="ltr" writing-mode="lr-tb" unicode-bidi="normal" text-decoration="none" transform="matrix(1 0 0 1 1427.68 1861)">existing residues</text><rect x="2014.5" y="2004.5" width="664" height="114" stroke="#042433" stroke-width="3.4375" stroke-linecap="butt" stroke-linejoin="miter" stroke-miterlimit="8" stroke-opacity="1" fill="#F2F2F2" fill-opacity="1"/><text fill="#000000" fill-opacity="1" font-family="Arial,Arial_MSFontService,sans-serif" font-style="normal" font-variant="normal" font-weight="400" font-stretch="normal" font-size="44" text-anchor="start" direction="ltr" writing-mode="lr-tb" unicode-bidi="normal" text-decoration="none" transform="matrix(1 0 0 1 2140.08 2077)">Add missing residues</text><rect x="2855.5" y="1410.5" width="664" height="115" stroke="#042433" stroke-width="3.4375" stroke-linecap="butt" stroke-linejoin="miter" stroke-miterlimit="8" stroke-opacity="1" fill="#F2F2F2" fill-opacity="1"/><text fill="#000000" fill-opacity="1" font-family="Arial,Arial_MSFontService,sans-serif" font-style="normal" font-variant="normal" font-weight="400" font-stretch="normal" font-size="44" text-anchor="start" direction="ltr" writing-mode="lr-tb" unicode-bidi="normal" text-decoration="none" transform="matrix(1 0 0 1 2968.73 1483)">Get SDF file from PDB</text><rect x="2855.5" y="1602.5" width="664" height="115" stroke="#042433" stroke-width="3.4375" stroke-linecap="butt" stroke-linejoin="miter" stroke-miterlimit="8" stroke-opacity="1" fill="#F2F2F2" fill-opacity="1"/><text fill="#000000" fill-opacity="1" font-family="Arial,Arial_MSFontService,sans-serif" font-style="normal" font-variant="normal" font-weight="400" font-stretch="normal" font-size="44" text-anchor="start" direction="ltr" writing-mode="lr-tb" unicode-bidi="normal" text-decoration="none" transform="matrix(1 0 0 1 2913.73 1675)">Query for reference SMILES</text><path d="M2538.54 1290 2538.54 1352.7 1975 1352.7 1977.86 1349.84 1977.86 1386.76 1972.14 1386.76 1972.14 1346.97 2535.67 1346.97 2532.81 1349.84 2532.81 1290ZM1988.75 1382.17 1975 1409.67 1961.25 1382.17Z" fill="#000000" fill-rule="nonzero" fill-opacity="1"/><path d="M0-2.86458 102.539-2.86458 102.539 651.849 99.6744 648.984 137.934 648.984 137.934 654.713 96.8098 654.713 96.8098 0 99.6744 2.86458 0 2.86458ZM133.351 638.099 160.851 651.849 133.351 665.599Z" fill="#000000" fill-rule="nonzero" fill-opacity="1" transform="matrix(1.83697e-16 1 1 -1.83697e-16 2535 1249)"/><path d="M0-2.86458 56.5553-2.86458 56.5553 186.039 50.8261 186.039 50.8261 0 53.6907 2.86458 0 2.86458ZM67.4407 181.455 53.6907 208.955 39.9407 181.455Z" fill="#000000" fill-rule="nonzero" fill-opacity="1" transform="matrix(-1 1.22465e-16 1.22465e-16 1 1642.69 1467)"/><path d="M2307 1464.14 2349.6 1464.14 2349.6 1608.82 2343.87 1608.82 2343.87 1467 2346.73 1469.86 2307 1469.86ZM2360.48 1604.24 2346.73 1631.74 2332.98 1604.24Z" fill="#000000" fill-rule="nonzero" fill-opacity="1"/><path d="M2.86458-0.000867517 2.88651 72.4172-2.84265 72.419-2.86458 0.000867517ZM13.7705 67.8306 0.0288714 95.3348-13.7295 67.8389Z" fill="#000000" fill-rule="nonzero" fill-opacity="1" transform="matrix(-1 0 0 1 2346.03 1909)"/><path d="M0-2.86458 280.333-2.86458 280.333 395.502 277.468 392.638 308.515 392.638 308.515 398.367 274.604 398.367 274.604 0 277.468 2.86458 0 2.86458ZM303.932 381.752 331.432 395.502 303.932 409.252Z" fill="#000000" fill-rule="nonzero" fill-opacity="1" transform="matrix(1.83697e-16 1 1 -1.83697e-16 1589 1909)"/><path d="M2349.45 2118 2349.45 2190.52 1985 2190.52 1987.86 2187.66 1987.86 2218.04 1982.14 2218.04 1982.14 2184.79 2346.59 2184.79 2343.72 2187.66 2343.72 2118ZM1998.75 2213.46 1985 2240.96 1971.25 2213.46Z" fill="#000000" fill-rule="nonzero" fill-opacity="1"/><path d="M0-2.86458 84.0475-2.86458 84.0475 602.36 81.183 599.495 242.751 599.495 242.751 605.225 78.3184 605.225 78.3184 0 81.183 2.86458 0 2.86458ZM238.168 588.61 265.668 602.36 238.168 616.11Z" fill="#000000" fill-rule="nonzero" fill-opacity="1" transform="matrix(1.83697e-16 1 1 -1.83697e-16 1985 2356)"/><path d="M3190.06 2314 3190.06 2441.92 2587 2441.92 2589.86 2439.05 2589.86 2598.58 2584.14 2598.58 2584.14 2436.19 3187.2 2436.19 3184.33 2439.05 3184.33 2314ZM2600.75 2593.99 2587 2621.49 2573.25 2593.99Z" fill="#000000" fill-rule="nonzero" fill-opacity="1"/><path d="M913.5 843.5 935.02 685.5 1425.5 685.5 1403.98 843.5Z" stroke="#042433" stroke-width="4.58333" stroke-linecap="butt" stroke-linejoin="miter" stroke-miterlimit="8" stroke-opacity="1" fill="#F2F2F2" fill-rule="evenodd" fill-opacity="1"/><text fill="#000000" fill-opacity="1" font-family="Arial,Arial_MSFontService,sans-serif" font-style="normal" font-variant="normal" font-weight="700" font-stretch="normal" font-size="44" text-anchor="start" direction="ltr" writing-mode="lr-tb" unicode-bidi="normal" text-decoration="none" transform="matrix(1 0 0 1 1071.86 780)">Additives</text><text fill="#0070C0" fill-opacity="1" font-family="Arial,Arial_MSFontService,sans-serif" font-style="normal" font-variant="normal" font-weight="700" font-stretch="normal" font-size="46" text-anchor="start" direction="ltr" writing-mode="lr-tb" unicode-bidi="normal" text-decoration="none" transform="matrix(1 0 0 1 1411.08 2434)">Structure Fixing</text><text fill="#275317" fill-opacity="1" font-family="Arial,Arial_MSFontService,sans-serif" font-style="normal" font-variant="normal" font-weight="700" font-stretch="normal" font-size="46" text-anchor="start" direction="ltr" writing-mode="lr-tb" unicode-bidi="normal" text-decoration="none" transform="matrix(1 0 0 1 1939.58 1029)">Filters</text><text fill="#7030A0" fill-opacity="1" font-family="Arial,Arial_MSFontService,sans-serif" font-style="normal" font-variant="normal" font-weight="700" font-stretch="normal" font-size="46" text-anchor="start" direction="ltr" writing-mode="lr-tb" unicode-bidi="normal" text-decoration="none" transform="matrix(1 0 0 1 2019.92 2589)">Structure Refinement</text><path d="M1308.92 1897.87 978.917 1897.86 978.917 1892.14 1308.92 1892.14ZM983.5 1908.75 956 1895 983.5 1881.25Z" fill="#000000" fill-rule="nonzero" fill-opacity="1"/><path d="M0-2.86458 1230.7-2.86458 1230.7 673.205 1224.97 673.205 1224.97 0 1227.83 2.86458 0 2.86458ZM1241.58 668.622 1227.83 696.122 1214.08 668.622Z" fill="#000000" fill-rule="nonzero" fill-opacity="1" transform="matrix(-1 1.22465e-16 1.22465e-16 1 1974.83 1120)"/><rect x="1756.5" y="2893.5" width="1663" height="502" stroke="#042433" stroke-width="4.58333" stroke-linecap="butt" stroke-linejoin="miter" stroke-miterlimit="8" stroke-opacity="1" fill="#FBE3D6" fill-opacity="1"/><text fill="#000000" fill-opacity="1" font-family="Arial,Arial_MSFontService,sans-serif" font-style="normal" font-variant="normal" font-weight="700" font-stretch="normal" font-size="46" text-anchor="start" direction="ltr" writing-mode="lr-tb" unicode-bidi="normal" text-decoration="none" transform="matrix(1 0 0 1 2259.04 2993)">Protein</text><text fill="#000000" fill-opacity="1" font-family="Arial,Arial_MSFontService,sans-serif" font-style="normal" font-variant="normal" font-weight="700" font-stretch="normal" font-size="46" text-anchor="start" direction="ltr" writing-mode="lr-tb" unicode-bidi="normal" text-decoration="none" transform="matrix(1 0 0 1 2416.59 2993)">–</text><text fill="#000000" fill-opacity="1" font-family="Arial,Arial_MSFontService,sans-serif" font-style="normal" font-variant="normal" font-weight="700" font-stretch="normal" font-size="46" text-anchor="start" direction="ltr" writing-mode="lr-tb" unicode-bidi="normal" text-decoration="none" transform="matrix(1 0 0 1 2441.8 2993)">ligand Binding Database</text><text fill="#000000" fill-opacity="1" font-family="Arial,Arial_MSFontService,sans-serif" font-style="normal" font-variant="normal" font-weight="400" font-stretch="normal" font-size="46" text-anchor="start" direction="ltr" writing-mode="lr-tb" unicode-bidi="normal" text-decoration="none" transform="matrix(1 0 0 1 1788.67 3061)">•</text><text fill="#000000" fill-opacity="1" font-family="Arial,Arial_MSFontService,sans-serif" font-style="normal" font-variant="normal" font-weight="400" font-stretch="normal" font-size="46" text-anchor="start" direction="ltr" writing-mode="lr-tb" unicode-bidi="normal" text-decoration="none" transform="matrix(1 0 0 1 1871.17 3061)">Refined protein structure [.</text><text fill="#000000" fill-opacity="1" font-family="Arial,Arial_MSFontService,sans-serif" font-style="normal" font-variant="normal" font-weight="400" font-stretch="normal" font-size="46" text-anchor="start" direction="ltr" writing-mode="lr-tb" unicode-bidi="normal" text-decoration="none" transform="matrix(1 0 0 1 2407.99 3061)">pdb</text><text fill="#000000" fill-opacity="1" font-family="Arial,Arial_MSFontService,sans-serif" font-style="normal" font-variant="normal" font-weight="400" font-stretch="normal" font-size="46" text-anchor="start" direction="ltr" writing-mode="lr-tb" unicode-bidi="normal" text-decoration="none" transform="matrix(1 0 0 1 2483.62 3061)">]</text><text fill="#000000" fill-opacity="1" font-family="Arial,Arial_MSFontService,sans-serif" font-style="normal" font-variant="normal" font-weight="400" font-stretch="normal" font-size="46" text-anchor="start" direction="ltr" writing-mode="lr-tb" unicode-bidi="normal" text-decoration="none" transform="matrix(1 0 0 1 1788.67 3130)">•</text><text fill="#000000" fill-opacity="1" font-family="Arial,Arial_MSFontService,sans-serif" font-style="normal" font-variant="normal" font-weight="400" font-stretch="normal" font-size="46" text-anchor="start" direction="ltr" writing-mode="lr-tb" unicode-bidi="normal" text-decoration="none" transform="matrix(1 0 0 1 1871.17 3130)">Refined ligand structure [.</text><text fill="#000000" fill-opacity="1" font-family="Arial,Arial_MSFontService,sans-serif" font-style="normal" font-variant="normal" font-weight="400" font-stretch="normal" font-size="46" text-anchor="start" direction="ltr" writing-mode="lr-tb" unicode-bidi="normal" text-decoration="none" transform="matrix(1 0 0 1 2390.23 3130)">sdf</text><text fill="#000000" fill-opacity="1" font-family="Arial,Arial_MSFontService,sans-serif" font-style="normal" font-variant="normal" font-weight="400" font-stretch="normal" font-size="46" text-anchor="start" direction="ltr" writing-mode="lr-tb" unicode-bidi="normal" text-decoration="none" transform="matrix(1 0 0 1 2450.96 3130)">]</text><text fill="#000000" fill-opacity="1" font-family="Arial,Arial_MSFontService,sans-serif" font-style="normal" font-variant="normal" font-weight="400" font-stretch="normal" font-size="46" text-anchor="start" direction="ltr" writing-mode="lr-tb" unicode-bidi="normal" text-decoration="none" transform="matrix(1 0 0 1 1788.67 3199)">•</text><text fill="#000000" fill-opacity="1" font-family="Arial,Arial_MSFontService,sans-serif" font-style="normal" font-variant="normal" font-weight="400" font-stretch="normal" font-size="46" text-anchor="start" direction="ltr" writing-mode="lr-tb" unicode-bidi="normal" text-decoration="none" transform="matrix(1 0 0 1 1871.17 3199)">Additives (ions, solvents, co</text><text fill="#000000" fill-opacity="1" font-family="Arial,Arial_MSFontService,sans-serif" font-style="normal" font-variant="normal" font-weight="400" font-stretch="normal" font-size="46" text-anchor="start" direction="ltr" writing-mode="lr-tb" unicode-bidi="normal" text-decoration="none" transform="matrix(1 0 0 1 2433.78 3199)">-</text><text fill="#000000" fill-opacity="1" font-family="Arial,Arial_MSFontService,sans-serif" font-style="normal" font-variant="normal" font-weight="400" font-stretch="normal" font-size="46" text-anchor="start" direction="ltr" writing-mode="lr-tb" unicode-bidi="normal" text-decoration="none" transform="matrix(1 0 0 1 2449.24 3199)">factors) [.</text><text fill="#000000" fill-opacity="1" font-family="Arial,Arial_MSFontService,sans-serif" font-style="normal" font-variant="normal" font-weight="400" font-stretch="normal" font-size="46" text-anchor="start" direction="ltr" writing-mode="lr-tb" unicode-bidi="normal" text-decoration="none" transform="matrix(1 0 0 1 2639.45 3199)">pdb</text><text fill="#000000" fill-opacity="1" font-family="Arial,Arial_MSFontService,sans-serif" font-style="normal" font-variant="normal" font-weight="400" font-stretch="normal" font-size="46" text-anchor="start" direction="ltr" writing-mode="lr-tb" unicode-bidi="normal" text-decoration="none" transform="matrix(1 0 0 1 2715.08 3199)">]</text><text fill="#000000" fill-opacity="1" font-family="Arial,Arial_MSFontService,sans-serif" font-style="normal" font-variant="normal" font-weight="400" font-stretch="normal" font-size="46" text-anchor="start" direction="ltr" writing-mode="lr-tb" unicode-bidi="normal" text-decoration="none" transform="matrix(1 0 0 1 1788.67 3268)">•</text><text fill="#000000" fill-opacity="1" font-family="Arial,Arial_MSFontService,sans-serif" font-style="normal" font-variant="normal" font-weight="400" font-stretch="normal" font-size="46" text-anchor="start" direction="ltr" writing-mode="lr-tb" unicode-bidi="normal" text-decoration="none" transform="matrix(1 0 0 1 1871.17 3268)">Binding affinity annotation</text><text fill="#000000" fill-opacity="1" font-family="Arial,Arial_MSFontService,sans-serif" font-style="normal" font-variant="normal" font-weight="400" font-stretch="normal" font-size="46" text-anchor="start" direction="ltr" writing-mode="lr-tb" unicode-bidi="normal" text-decoration="none" transform="matrix(1 0 0 1 1788.67 3336)">•</text><text fill="#000000" fill-opacity="1" font-family="Arial,Arial_MSFontService,sans-serif" font-style="normal" font-variant="normal" font-weight="400" font-stretch="normal" font-size="46" text-anchor="start" direction="ltr" writing-mode="lr-tb" unicode-bidi="normal" text-decoration="none" transform="matrix(1 0 0 1 1871.17 3336)">Other relevant annotation (resolution, release year, ligand properties)</text><path d="M3.4375-1.84385e-05 3.43774 44.3648-3.43726 44.3649-3.4375 1.84385e-05ZM13.7502 39.7815 0.000360892 67.2815-13.7498 39.7816Z" fill="#156082" fill-rule="nonzero" fill-opacity="1" transform="matrix(-1 0 0 1 2044.5 628.5)"/><path d="M0-2.86458 407.342-2.86458 407.342 163.602 401.613 163.602 401.613 0 404.478 2.86458 0 2.86458ZM418.228 159.019 404.478 186.519 390.728 159.019Z" fill="#000000" fill-rule="nonzero" fill-opacity="1" transform="matrix(-1 1.22465e-16 1.22465e-16 1 1573.48 499)"/><path d="M2514 496.136 3016.8 496.136 3016.8 669.897 3011.07 669.897 3011.07 499 3013.93 501.865 2514 501.865ZM3027.68 665.314 3013.93 692.814 3000.18 665.314Z" fill="#000000" fill-rule="nonzero" fill-opacity="1"/><path d="M0-2.29167 71.2252-2.29167 71.2252 491.544 68.9335 489.253 114.95 489.253 114.95 493.836 66.6418 493.836 66.6418 0 68.9335 2.29167 0 2.29167ZM110.367 477.794 137.867 491.544 110.367 505.294Z" fill="#000000" fill-rule="nonzero" fill-opacity="1" transform="matrix(1.83697e-16 1 1 -1.83697e-16 2044.5 853.5)"/><path d="M3005.61 850.5 3005.61 922.99 2535.5 922.99 2537.79 920.698 2537.79 967.98 2533.21 967.98 2533.21 918.407 3003.32 918.407 3001.03 920.698 3001.03 850.5ZM2549.25 963.396 2535.5 990.896 2521.75 963.396Z" fill="#000000" fill-rule="nonzero" fill-opacity="1"/><g><g><g><path d="M3138.63 3081.94C3138.63 3089.53 3117.08 3095.69 3090.5 3095.69 3063.92 3095.69 3042.38 3089.53 3042.38 3081.94 3042.38 3074.34 3063.92 3068.19 3090.5 3068.19 3117.08 3068.19 3138.63 3074.34 3138.63 3081.94Z" fill="#000000" fill-rule="nonzero" fill-opacity="1"/><path d="M3124.88 3116.31C3122.81 3116.31 3121.44 3114.94 3121.44 3112.88 3121.44 3110.81 3122.81 3109.44 3124.88 3109.44 3126.94 3109.44 3128.31 3110.81 3128.31 3112.88 3128.31 3114.94 3126.94 3116.31 3124.88 3116.31ZM3090.5 3102.56C3064.03 3102.56 3042.38 3096.38 3042.38 3088.81L3042.38 3116.31C3042.38 3123.88 3064.03 3130.06 3090.5 3130.06 3116.97 3130.06 3138.63 3123.88 3138.63 3116.31L3138.63 3088.81C3138.63 3096.38 3116.97 3102.56 3090.5 3102.56Z" fill="#000000" fill-rule="nonzero" fill-opacity="1"/><path d="M3124.88 3150.69C3122.81 3150.69 3121.44 3149.31 3121.44 3147.25 3121.44 3145.19 3122.81 3143.81 3124.88 3143.81 3126.94 3143.81 3128.31 3145.19 3128.31 3147.25 3128.31 3149.31 3126.94 3150.69 3124.88 3150.69ZM3090.5 3136.94C3064.03 3136.94 3042.38 3130.75 3042.38 3123.19L3042.38 3150.69C3042.38 3158.25 3064.03 3164.44 3090.5 3164.44 3116.97 3164.44 3138.63 3158.25 3138.63 3150.69L3138.63 3123.19C3138.63 3130.75 3116.97 3136.94 3090.5 3136.94Z" fill="#000000" fill-rule="nonzero" fill-opacity="1"/><path d="M3124.88 3185.06C3122.81 3185.06 3121.44 3183.69 3121.44 3181.63 3121.44 3179.56 3122.81 3178.19 3124.88 3178.19 3126.94 3178.19 3128.31 3179.56 3128.31 3181.63 3128.31 3183.69 3126.94 3185.06 3124.88 3185.06ZM3090.5 3171.31C3064.03 3171.31 3042.38 3165.13 3042.38 3157.56L3042.38 3185.06C3042.38 3192.63 3064.03 3198.81 3090.5 3198.81 3116.97 3198.81 3138.63 3192.63 3138.63 3185.06L3138.63 3157.56C3138.63 3165.13 3116.97 3171.31 3090.5 3171.31Z" fill="#000000" fill-rule="nonzero" fill-opacity="1"/></g></g></g><g><g><g><path d="M130.74 134.136 130.74 32.2605C130.74 22.3344 105.371 16.9792 81.5001 16.9792 57.6291 16.9792 32.2605 22.3344 32.2605 32.2605L32.2605 134.136C32.2605 144.062 57.6291 149.417 81.5001 149.417 105.371 149.417 130.74 144.062 130.74 134.136ZM81.5001 20.375C107.738 20.375 127.344 26.6573 127.344 32.2605 127.344 37.8636 107.738 44.1459 81.5001 44.1459 55.2622 44.1459 35.6563 37.8636 35.6563 32.2605 35.6563 26.6573 55.2622 20.375 81.5001 20.375ZM35.6563 38.1353C43.3462 44.2817 62.8791 47.5418 81.5001 47.5418 100.121 47.5418 119.654 44.2817 127.344 38.1353L127.344 66.2189C127.344 71.822 107.738 78.1043 81.5001 78.1043 55.2622 78.1043 35.6563 71.822 35.6563 66.2189ZM35.6563 72.0937C43.3462 78.2401 62.8791 81.5001 81.5001 81.5001 100.121 81.5001 119.654 78.2401 127.344 72.0937L127.344 100.177C127.344 105.78 107.738 112.063 81.5001 112.063 55.2622 112.063 35.6563 105.78 35.6563 100.177ZM35.6563 134.136 35.6563 106.052C43.3462 112.199 62.8791 115.459 81.5001 115.459 100.121 115.459 119.654 112.199 127.344 106.052L127.344 134.136C127.344 139.739 107.738 146.021 81.5001 146.021 55.2622 146.021 35.6563 139.739 35.6563 134.136Z" fill="#000000" fill-rule="nonzero" fill-opacity="1" transform="matrix(1.00613 0 0 1 3117 3053)"/><path d="M118.854 61.1251C118.854 63.0006 117.334 64.521 115.459 64.521 113.583 64.521 112.063 63.0006 112.063 61.1251 112.063 59.2496 113.583 57.7293 115.459 57.7293 117.334 57.7293 118.854 59.2496 118.854 61.1251Z" fill="#000000" fill-rule="nonzero" fill-opacity="1" transform="matrix(1.00613 0 0 1 3117 3053)"/><path d="M118.854 95.0835C118.854 96.959 117.334 98.4793 115.459 98.4793 113.583 98.4793 112.063 96.959 112.063 95.0835 112.063 93.208 113.583 91.6877 115.459 91.6877 117.334 91.6877 118.854 93.208 118.854 95.0835Z" fill="#000000" fill-rule="nonzero" fill-opacity="1" transform="matrix(1.00613 0 0 1 3117 3053)"/><path d="M118.854 129.042C118.854 130.917 117.334 132.438 115.459 132.438 113.583 132.438 112.063 130.917 112.063 129.042 112.063 127.166 113.583 125.646 115.459 125.646 117.334 125.646 118.854 127.166 118.854 129.042Z" fill="#000000" fill-rule="nonzero" fill-opacity="1" transform="matrix(1.00613 0 0 1 3117 3053)"/></g></g></g><path d="M2589.86 2774 2589.86 2870.14 2584.14 2870.14 2584.14 2774ZM2600.75 2865.56 2587 2893.06 2573.25 2865.56Z" fill="#000000" fill-rule="nonzero" fill-opacity="1"/><path d="M0-2.86458 2304.44-2.86458 2304.44 563.496 2298.71 563.496 2298.71 0 2301.58 2.86458 0 2.86458ZM2315.33 558.913 2301.58 586.413 2287.83 558.913Z" fill="#000000" fill-rule="nonzero" fill-opacity="1" transform="matrix(1.83697e-16 1 1 -1.83697e-16 1169 843)"/><path d="M2.86458-0.000121259 2.86686 53.8136-2.86231 53.8139-2.86458 0.000121259ZM13.7521 49.2298 0.00324803 76.7304-13.7479 49.231Z" fill="#000000" fill-rule="nonzero" fill-opacity="1" transform="matrix(-1 0 0 1 3187 1525)"/><path d="M3189.86 1717 3189.87 1784.43 3184.14 1784.43 3184.14 1717ZM3200.75 1779.84 3187.01 1807.34 3173.25 1779.84Z" fill="#000000" fill-rule="nonzero" fill-opacity="1"/><text fill="#000000" fill-opacity="1" font-family="Arial,Arial_MSFontService,sans-serif" font-style="italic" font-variant="normal" font-weight="400" font-stretch="normal" font-size="46" text-anchor="start" direction="ltr" writing-mode="lr-tb" unicode-bidi="normal" text-decoration="none" transform="matrix(1 0 0 1 1071.67 1949)">Fail</text><text fill="#000000" fill-opacity="1" font-family="Arial,Arial_MSFontService,sans-serif" font-style="italic" font-variant="normal" font-weight="400" font-stretch="normal" font-size="46" text-anchor="start" direction="ltr" writing-mode="lr-tb" unicode-bidi="normal" text-decoration="none" transform="matrix(1 0 0 1 1735.23 1093)">Yes</text><text fill="#000000" fill-opacity="1" font-family="Arial,Arial_MSFontService,sans-serif" font-style="italic" font-variant="normal" font-weight="400" font-stretch="normal" font-size="46" text-anchor="start" direction="ltr" writing-mode="lr-tb" unicode-bidi="normal" text-decoration="none" transform="matrix(1 0 0 1 2582.25 1309)">No</text><text fill="#000000" fill-opacity="1" font-family="Arial,Arial_MSFontService,sans-serif" font-style="italic" font-variant="normal" font-weight="400" font-stretch="normal" font-size="46" text-anchor="start" direction="ltr" writing-mode="lr-tb" unicode-bidi="normal" text-decoration="none" transform="matrix(1 0 0 1 2380.94 1966)">No</text></g></g></svg>